<svg width="132" height="37" viewBox="0 0 132 37" fill="none" xmlns="http://www.w3.org/2000/svg">
<path d="M36.3 28L30.966 13.3H34.0425L38.169 24.6505L42.2955 13.3H45.3615L40.0275 28H36.3ZM53.2609 17.5H56.1589V28H53.2504L53.1139 26.908C52.8409 27.314 52.4909 27.643 52.0639 27.895C51.6369 28.147 51.1364 28.273 50.5624 28.273C49.7784 28.273 49.0469 28.126 48.3679 27.832C47.6889 27.538 47.0904 27.132 46.5724 26.614C46.0544 26.096 45.6484 25.4975 45.3544 24.8185C45.0674 24.1325 44.9239 23.3975 44.9239 22.6135C44.9239 21.8645 45.0604 21.1645 45.3334 20.5135C45.6064 19.8625 45.9914 19.2885 46.4884 18.7915C46.9854 18.2945 47.5559 17.906 48.1999 17.626C48.8509 17.346 49.5509 17.206 50.2999 17.206C50.9439 17.206 51.5214 17.3425 52.0324 17.6155C52.5504 17.8885 53.0019 18.235 53.3869 18.655L53.2609 17.5ZM50.4889 25.4905C50.9649 25.4905 51.3954 25.368 51.7804 25.123C52.1654 24.878 52.4699 24.549 52.6939 24.136C52.9179 23.716 53.0299 23.254 53.0299 22.75C53.0299 22.239 52.9179 21.777 52.6939 21.364C52.4699 20.951 52.1654 20.622 51.7804 20.377C51.3954 20.132 50.9649 20.0095 50.4889 20.0095C50.0059 20.0095 49.5684 20.132 49.1764 20.377C48.7844 20.622 48.4729 20.9545 48.2419 21.3745C48.0109 21.7875 47.8954 22.246 47.8954 22.75C47.8954 23.254 48.0109 23.716 48.2419 24.136C48.4799 24.549 48.7949 24.878 49.1869 25.123C49.5789 25.368 50.0129 25.4905 50.4889 25.4905ZM61.3243 28.189C60.7853 28.147 60.2673 28.035 59.7703 27.853C59.2733 27.664 58.8288 27.412 58.4368 27.097C58.0518 26.775 57.7508 26.39 57.5338 25.942L59.9698 24.892C60.0468 25.004 60.1623 25.1265 60.3163 25.2595C60.4703 25.3855 60.6558 25.4975 60.8728 25.5955C61.0968 25.6935 61.3558 25.7425 61.6498 25.7425C61.8668 25.7425 62.0768 25.718 62.2798 25.669C62.4828 25.613 62.6473 25.5255 62.7733 25.4065C62.8993 25.2805 62.9623 25.116 62.9623 24.913C62.9623 24.689 62.8818 24.5175 62.7208 24.3985C62.5598 24.2795 62.3638 24.192 62.1328 24.136C61.9088 24.073 61.6918 24.0205 61.4818 23.9785C60.8378 23.8665 60.2288 23.667 59.6548 23.38C59.0878 23.086 58.6258 22.708 58.2688 22.246C57.9118 21.784 57.7333 21.231 57.7333 20.587C57.7333 19.88 57.9188 19.271 58.2898 18.76C58.6608 18.242 59.1438 17.843 59.7388 17.563C60.3338 17.283 60.9778 17.143 61.6708 17.143C62.4898 17.143 63.2493 17.3145 63.9493 17.6575C64.6493 18.0005 65.2128 18.4835 65.6398 19.1065L63.3508 20.461C63.2598 20.328 63.1408 20.202 62.9938 20.083C62.8538 19.957 62.6893 19.852 62.5003 19.768C62.3183 19.677 62.1223 19.6245 61.9123 19.6105C61.6393 19.5895 61.3908 19.607 61.1668 19.663C60.9428 19.712 60.7643 19.8065 60.6313 19.9465C60.5053 20.0865 60.4423 20.2755 60.4423 20.5135C60.4423 20.7445 60.5438 20.916 60.7468 21.028C60.9498 21.133 61.1843 21.2135 61.4503 21.2695C61.7163 21.3185 61.9508 21.378 62.1538 21.448C62.7628 21.644 63.3333 21.896 63.8653 22.204C64.4043 22.505 64.8383 22.876 65.1673 23.317C65.4963 23.758 65.6503 24.276 65.6293 24.871C65.6293 25.564 65.4228 26.173 65.0098 26.698C64.5968 27.216 64.0613 27.6115 63.4033 27.8845C62.7523 28.1505 62.0593 28.252 61.3243 28.189ZM74.9172 17.5H77.8152V28H74.9067L74.7702 26.908C74.4972 27.314 74.1472 27.643 73.7202 27.895C73.2932 28.147 72.7927 28.273 72.2187 28.273C71.4347 28.273 70.7032 28.126 70.0242 27.832C69.3452 27.538 68.7467 27.132 68.2287 26.614C67.7107 26.096 67.3047 25.4975 67.0107 24.8185C66.7237 24.1325 66.5802 23.3975 66.5802 22.6135C66.5802 21.8645 66.7167 21.1645 66.9897 20.5135C67.2627 19.8625 67.6477 19.2885 68.1447 18.7915C68.6417 18.2945 69.2122 17.906 69.8562 17.626C70.5072 17.346 71.2072 17.206 71.9562 17.206C72.6002 17.206 73.1777 17.3425 73.6887 17.6155C74.2067 17.8885 74.6582 18.235 75.0432 18.655L74.9172 17.5ZM72.1452 25.4905C72.6212 25.4905 73.0517 25.368 73.4367 25.123C73.8217 24.878 74.1262 24.549 74.3502 24.136C74.5742 23.716 74.6862 23.254 74.6862 22.75C74.6862 22.239 74.5742 21.777 74.3502 21.364C74.1262 20.951 73.8217 20.622 73.4367 20.377C73.0517 20.132 72.6212 20.0095 72.1452 20.0095C71.6622 20.0095 71.2247 20.132 70.8327 20.377C70.4407 20.622 70.1292 20.9545 69.8982 21.3745C69.6672 21.7875 69.5517 22.246 69.5517 22.75C69.5517 23.254 69.6672 23.716 69.8982 24.136C70.1362 24.549 70.4512 24.878 70.8432 25.123C71.2352 25.368 71.6692 25.4905 72.1452 25.4905ZM85.637 20.398H83.747V28H80.849V20.398H79.4V17.5H80.849V14.203H83.747V17.5H85.637V20.398Z" fill="#2D3748"/>
<path d="M94.2648 17.5H97.3518L91.5978 33.25H88.5318L90.4218 28L86.6418 17.5H89.8128L91.8708 24.0415L94.2648 17.5ZM105.987 17.5H108.885V28H105.976L105.84 26.908C105.567 27.314 105.217 27.643 104.79 27.895C104.363 28.147 103.862 28.273 103.288 28.273C102.504 28.273 101.773 28.126 101.094 27.832C100.415 27.538 99.816 27.132 99.298 26.614C98.78 26.096 98.374 25.4975 98.08 24.8185C97.793 24.1325 97.6495 23.3975 97.6495 22.6135C97.6495 21.8645 97.786 21.1645 98.059 20.5135C98.332 19.8625 98.717 19.2885 99.214 18.7915C99.711 18.2945 100.282 17.906 100.926 17.626C101.577 17.346 102.277 17.206 103.026 17.206C103.67 17.206 104.247 17.3425 104.758 17.6155C105.276 17.8885 105.728 18.235 106.113 18.655L105.987 17.5ZM103.215 25.4905C103.691 25.4905 104.121 25.368 104.506 25.123C104.891 24.878 105.196 24.549 105.42 24.136C105.644 23.716 105.756 23.254 105.756 22.75C105.756 22.239 105.644 21.777 105.42 21.364C105.196 20.951 104.891 20.622 104.506 20.377C104.121 20.132 103.691 20.0095 103.215 20.0095C102.732 20.0095 102.294 20.132 101.902 20.377C101.51 20.622 101.199 20.9545 100.968 21.3745C100.737 21.7875 100.621 22.246 100.621 22.75C100.621 23.254 100.737 23.716 100.968 24.136C101.206 24.549 101.521 24.878 101.913 25.123C102.305 25.368 102.739 25.4905 103.215 25.4905ZM116.727 17.206C117.749 17.206 118.676 17.4545 119.509 17.9515C120.349 18.4485 121.018 19.117 121.515 19.957C122.012 20.79 122.26 21.714 122.26 22.729C122.26 23.492 122.117 24.2095 121.83 24.8815C121.543 25.5535 121.144 26.145 120.633 26.656C120.129 27.16 119.541 27.5555 118.869 27.8425C118.204 28.1295 117.49 28.273 116.727 28.273C116.125 28.273 115.589 28.14 115.12 27.874C114.651 27.608 114.249 27.272 113.913 26.866V28H111.015V12.25H113.913V18.613C114.249 18.2 114.651 17.864 115.12 17.605C115.589 17.339 116.125 17.206 116.727 17.206ZM116.685 25.4695C117.168 25.4695 117.605 25.347 117.997 25.102C118.396 24.857 118.711 24.528 118.942 24.115C119.173 23.695 119.289 23.233 119.289 22.729C119.289 22.225 119.17 21.7665 118.932 21.3535C118.701 20.9405 118.386 20.6115 117.987 20.3665C117.595 20.1145 117.161 19.9885 116.685 19.9885C116.209 19.9885 115.778 20.1145 115.393 20.3665C115.015 20.6115 114.714 20.944 114.49 21.364C114.273 21.777 114.165 22.232 114.165 22.729C114.165 23.24 114.273 23.702 114.49 24.115C114.714 24.528 115.015 24.857 115.393 25.102C115.778 25.347 116.209 25.4695 116.685 25.4695Z" fill="#0FA9E6"/>
<path d="M14.609 31.5467C14.2272 32.208 13.2727 32.208 12.8909 31.5467L4.76899 17.4792C2.26023 13.1339 3.51106 7.59025 7.64263 4.74321V4.74321C11.3199 2.20921 16.18 2.20921 19.8573 4.74322V4.74322C23.9889 7.59026 25.2397 13.1339 22.7309 17.4791L14.609 31.5467Z" fill="#0FA9E6"/>
<path d="M5.99959 32.5557C5.69701 32.7304 5.31878 32.512 5.31878 32.1626L5.31879 24.7305C5.31879 22.4348 7.08264 20.5243 9.37106 20.3413V20.3413C11.4079 20.1785 13.3336 21.2904 14.211 23.1357V23.1357C15.1968 25.209 14.4242 27.6918 12.4361 28.8396L5.99959 32.5557Z" fill="#2D3748"/>
<path d="M19.7559 15.8821C17.961 18.991 13.9856 20.0562 10.8767 18.2613C7.76782 16.4663 6.70263 12.491 8.49756 9.38209C10.2925 6.27319 14.2678 5.208 17.3767 7.00293C20.4856 8.79786 21.5508 12.7732 19.7559 15.8821Z" fill="white"/>
<path d="M13 25.0001C13 26.657 11.6569 28.0001 10 28.0001C8.34315 28.0001 7 26.657 7 25.0001C7 23.3433 8.34315 22.0001 10 22.0001C11.6569 22.0001 13 23.3433 13 25.0001Z" fill="white"/>
</svg>
